<?xml version="1.0" encoding="UTF-8" standalone="no"?>
<!DOCTYPE svg PUBLIC "-//W3C//DTD SVG 1.1//EN" "http://www.w3.org/Graphics/SVG/1.1/DTD/svg11.dtd">
<svg width="100%" height="100%" viewBox="0 0 163 193" version="1.1" xmlns="http://www.w3.org/2000/svg" xmlns:xlink="http://www.w3.org/1999/xlink" xml:space="preserve" xmlns:serif="http://www.serif.com/" style="fill-rule:evenodd;clip-rule:evenodd;">
    <g transform="matrix(1,0,0,1,-48.639447,-44.55)">
        <g id="cvpage1_top">
            <g transform="matrix(1,0,0,1,-50.099,0)">
                <path d="M201.6,58.95C158.4,80.55 115.2,109.35 115.2,145.35C115.2,181.35 158.4,210.15 201.6,231.75" style="fill:rgb(235,235,235);fill-rule:nonzero;stroke:black;stroke-width:1px;"/>
            </g>
            <g transform="matrix(1,0,0,1,-50.099,0)">
                <path d="M115.2,235.35L115.2,51.425" style="fill:none;fill-rule:nonzero;stroke:black;stroke-width:1px;"/>
            </g>
            <g transform="matrix(1,0,0,1,-50.099,0)">
                <path d="M118.306,53.504C118.316,53.499 118.321,53.497 118.321,53.497L115.248,44.55C115.248,44.55 112.676,51.554 112.079,53.437C112.868,52.638 113.961,52.139 115.161,52.139C116.394,52.139 117.513,52.666 118.306,53.504"/>
            </g>
            <g transform="matrix(1,0,0,1,-50.099,0)">
                <path d="M100.8,145.35L209.125,145.35" style="fill:none;fill-rule:nonzero;stroke:black;stroke-width:1px;"/>
            </g>
            <g transform="matrix(1,0,0,1,-50.099,0)">
                <path d="M207.046,142.244C207.051,142.234 207.053,142.229 207.053,142.229L216,145.303C216,145.303 208.996,147.874 207.113,148.47C207.912,147.682 208.411,146.589 208.411,145.389C208.411,144.156 207.885,143.037 207.046,142.244"/>
            </g>
            <g transform="matrix(1,0,0,1,-50.099,0)">
                <path d="M138.5,145.35C138.5,146.343 137.693,147.15 136.7,147.15C135.707,147.15 134.9,146.343 134.9,145.35C134.9,144.357 135.707,143.55 136.7,143.55C137.693,143.55 138.5,144.357 138.5,145.35Z" style="fill:white;fill-rule:nonzero;stroke:black;stroke-width:1px;"/>
            </g>
            <g transform="matrix(1,0,0,1,-50.099,0)">
                <path d="M206.37,58.95L259.2,58.95" style="fill:none;fill-rule:nonzero;stroke:rgb(255,28,28);stroke-width:1px;"/>
            </g>
            <g transform="matrix(1,0,0,1,-50.099,0)">
                <path d="M209.625,56.698C209.621,56.691 209.619,56.687 209.619,56.687L201.6,58.916C201.6,58.916 207.878,60.781 209.566,61.213C208.849,60.641 208.402,59.849 208.402,58.979C208.402,58.084 208.874,57.272 209.625,56.698" style="fill:rgb(255,28,28);"/>
            </g>
            <g transform="matrix(1,0,0,1,-50.099,0)">
                <path d="M201.6,58.95L136.8,145.35" style="fill:none;fill-rule:nonzero;stroke:rgb(255,28,28);stroke-width:1px;"/>
            </g>
            <g transform="matrix(1,0,0,1,-50.099,0)">
                <path d="M259.2,87.75L158.27,87.75" style="fill:none;fill-rule:nonzero;stroke:rgb(255,28,28);stroke-width:1px;"/>
            </g>
            <g transform="matrix(1,0,0,1,-50.099,0)">
                <path d="M161.525,90.002C161.521,90.01 161.519,90.013 161.519,90.013L153.5,87.784C153.5,87.784 159.778,85.919 161.466,85.487C160.749,86.059 160.302,86.851 160.302,87.721C160.302,88.615 160.774,89.428 161.525,90.002" style="fill:rgb(255,28,28);"/>
            </g>
            <g transform="matrix(1,0,0,1,-50.099,0)">
                <path d="M153.5,87.75L136.8,145.35" style="fill:none;fill-rule:nonzero;stroke:rgb(255,28,28);stroke-width:1px;"/>
            </g>
            <g transform="matrix(1,0,0,1,-50.099,0)">
                <path d="M259.2,116.55L129.67,116.55" style="fill:none;fill-rule:nonzero;stroke:rgb(255,28,28);stroke-width:1px;"/>
            </g>
            <g transform="matrix(1,0,0,1,-50.099,0)">
                <path d="M132.925,118.802C132.921,118.809 132.919,118.813 132.919,118.813L124.9,116.584C124.9,116.584 131.178,114.719 132.866,114.287C132.149,114.859 131.702,115.651 131.702,116.521C131.702,117.415 132.174,118.228 132.925,118.802" style="fill:rgb(255,28,28);"/>
            </g>
            <g transform="matrix(1,0,0,1,-50.099,0)">
                <path d="M124.9,116.55L136.8,145.35" style="fill:none;fill-rule:nonzero;stroke:rgb(255,28,28);stroke-width:1px;"/>
            </g>
            <g transform="matrix(1,0,0,1,-50.099,0)">
                <path d="M136.8,145.35L136.8,102.15" style="fill:none;fill-rule:nonzero;stroke:rgb(255,28,28);stroke-width:1px;"/>
            </g>
            <g transform="matrix(1,0,0,1,-50.099,0)">
                <path d="M141.57,102.15L259.2,102.15" style="fill:none;fill-rule:nonzero;stroke:rgb(255,28,28);stroke-width:1px;"/>
            </g>
            <g transform="matrix(1,0,0,1,-50.099,0)">
                <path d="M144.825,99.898C144.821,99.891 144.819,99.887 144.819,99.887L136.8,102.116C136.8,102.116 143.078,103.981 144.766,104.413C144.049,103.841 143.602,103.049 143.602,102.179C143.602,101.284 144.074,100.472 144.825,99.898" style="fill:rgb(255,28,28);"/>
            </g>
            <g transform="matrix(1,0,0,1,-50.099,0)">
                <path d="M136.8,145.35L174.9,73.35" style="fill:none;fill-rule:nonzero;stroke:rgb(255,28,28);stroke-width:1px;"/>
            </g>
            <g transform="matrix(1,0,0,1,-50.099,0)">
                <path d="M179.67,73.35L259.2,73.35" style="fill:none;fill-rule:nonzero;stroke:rgb(255,28,28);stroke-width:1px;"/>
            </g>
            <g transform="matrix(1,0,0,1,-50.099,0)">
                <path d="M182.925,71.098C182.921,71.091 182.919,71.087 182.919,71.087L174.9,73.316C174.9,73.316 181.178,75.18 182.866,75.613C182.149,75.041 181.702,74.249 181.702,73.379C181.702,72.484 182.174,71.672 182.925,71.098" style="fill:rgb(255,28,28);"/>
            </g>
            <g transform="matrix(1,0,0,1,-50.099,0)">
                <path d="M259.2,130.95L122.32,130.95" style="fill:none;fill-rule:nonzero;stroke:rgb(255,28,28);stroke-width:1px;"/>
            </g>
            <g transform="matrix(1,0,0,1,-50.099,0)">
                <path d="M125.575,133.202C125.571,133.209 125.569,133.213 125.569,133.213L117.55,130.984C117.55,130.984 123.828,129.119 125.516,128.687C124.799,129.259 124.352,130.051 124.352,130.921C124.352,131.815 124.824,132.628 125.575,133.202" style="fill:rgb(255,28,28);"/>
            </g>
            <g transform="matrix(1,0,0,1,-50.099,0)">
                <path d="M117.55,130.95L136.8,145.35" style="fill:none;fill-rule:nonzero;stroke:rgb(255,28,28);stroke-width:1px;"/>
            </g>
            <g transform="matrix(1,0,0,1,54.301,146.95)">
                <g transform="matrix(1,0,0,1,7.2,9)">
                    <text x="-5px" y="0px" style="font-family:'TimesNewRomanPSMT', 'Times New Roman', serif;font-size:10px;">0</text>
                </g>
            </g>
            <g transform="matrix(1,0,0,1,72.301,199.35)">
                <g transform="matrix(1,0,0,1,0,13)">
                    <text x="0px" y="0px" style="font-family:'TimesNewRomanPSMT', 'Times New Roman', serif;font-size:10px;">y2 = 4pz</text>
                </g>
            </g>
            <g transform="matrix(1,0,0,1,72.471,159.675)">
                <g transform="matrix(1,0,0,1,43.2,9.6)">
                    <text x="-25px" y="0px" style="font-family:'MS-Gothic', 'MS Gothic', monospace;font-size:10px;">回転放物面</text>
                </g>
                <g transform="matrix(1,0,0,1,43.2,20)">
                    <text x="-36.57px" y="0px" style="font-family:'MS-Gothic', 'MS Gothic', monospace;font-size:10px;">（</text>
                    <text x="-26.57px" y="0px" style="font-family:'TimesNewRomanPSMT', 'Times New Roman', serif;font-size:10px;">x = 0</text>
                    <text x="-3.43px" y="0px" style="font-family:'MS-Gothic', 'MS Gothic', monospace;font-size:10px;">の断面）</text>
                </g>
            </g>
            <g transform="matrix(1,0,0,1,78.701,146.15)">
                <g transform="matrix(1,0,0,1,8,9)">
                    <text x="-2.5px" y="0px" style="font-family:'TimesNewRomanPSMT', 'Times New Roman', serif;font-size:10px;">p</text>
                </g>
            </g>
            <g transform="matrix(1,0,0,1,57.901,40.95)">
                <g transform="matrix(1,0,0,1,0,9)">
                    <text x="0px" y="0px" style="font-family:'TimesNewRomanPSMT', 'Times New Roman', serif;font-size:10px;">y</text>
                </g>
            </g>
            <g transform="matrix(1,0,0,1,165.901,141.75)">
                <g transform="matrix(1,0,0,1,0,9)">
                    <text x="0px" y="0px" style="font-family:'TimesNewRomanPSMT', 'Times New Roman', serif;font-size:10px;">z</text>
                </g>
            </g>
        </g>
    </g>
</svg>
