<?xml version="1.0" encoding="UTF-8" standalone="no"?>
<!DOCTYPE svg PUBLIC "-//W3C//DTD SVG 1.1//EN" "http://www.w3.org/Graphics/SVG/1.1/DTD/svg11.dtd">
<svg width="100%" height="100%" viewBox="0 0 163 343" version="1.1" xmlns="http://www.w3.org/2000/svg" xmlns:xlink="http://www.w3.org/1999/xlink" xml:space="preserve" xmlns:serif="http://www.serif.com/" style="fill-rule:evenodd;clip-rule:evenodd;">
    <g transform="matrix(1,0,0,1,-60.416667,-703.487734)">
        <g transform="matrix(1.333333,0,0,1.333333,0,0)">
            <g transform="matrix(1,0,0,1,0,-38.238646)">
                <path d="M126.321,585C93.249,617.838 72,654.217 72,694.138C72,733.685 92.853,769.757 125.397,802.353" style="fill:rgb(235,235,235);fill-rule:nonzero;stroke:black;stroke-width:1px;"/>
            </g>
        </g>
        <g transform="matrix(1.333333,0,0,1.333333,0,0)">
            <g transform="matrix(1,0,0,1,0,-38.238646)">
                <path d="M126,820.138L126,576.731" style="fill:none;fill-rule:nonzero;stroke:black;stroke-width:1px;"/>
            </g>
        </g>
        <g transform="matrix(1.333333,0,0,1.333333,0,0)">
            <g transform="matrix(1,0,0,1,0,-38.238646)">
                <path d="M129.882,579.33C129.894,579.324 129.901,579.322 129.901,579.322L126.059,568.138C126.059,568.138 122.845,576.893 122.099,579.247C123.085,578.247 124.451,577.624 125.951,577.624C127.492,577.624 128.892,578.282 129.882,579.33"/>
            </g>
        </g>
        <g transform="matrix(1.333333,0,0,1.333333,0,0)">
            <g transform="matrix(1,0,0,1,0,-38.238646)">
                <path d="M54,694.138L153.406,694.138" style="fill:none;fill-rule:nonzero;stroke:black;stroke-width:1px;"/>
            </g>
        </g>
        <g transform="matrix(1.333333,0,0,1.333333,0,0)">
            <g transform="matrix(1,0,0,1,0,-38.238646)">
                <path d="M150.808,690.255C150.813,690.243 150.816,690.237 150.816,690.237L162,694.078C162,694.078 153.245,697.293 150.891,698.038C151.89,697.053 152.513,695.687 152.513,694.187C152.513,692.646 151.856,691.246 150.808,690.255"/>
            </g>
        </g>
        <g transform="matrix(1.333333,0,0,1.333333,0,0)">
            <g transform="matrix(1,0,0,1,0,-38.238646)">
                <path d="M74.25,694.138C74.25,695.379 73.242,696.388 72,696.388C70.758,696.388 69.75,695.379 69.75,694.138C69.75,692.896 70.758,691.888 72,691.888C73.242,691.888 74.25,692.896 74.25,694.138Z" style="fill:white;fill-rule:nonzero;stroke:black;stroke-width:1px;"/>
            </g>
        </g>
        <g transform="matrix(1.333333,0,0,1.333333,0,0)">
            <g transform="matrix(1,0,0,1,0,-38.238646)">
                <path d="M145.014,567.916C138.26,573.731 131.852,579.666 125.847,585.72" style="fill:rgb(235,235,235);"/>
            </g>
        </g>
        <g transform="matrix(1.333333,0,0,1.333333,0,0)">
            <g transform="matrix(1,0,0,1,0,-38.238646)">
                <path d="M145.014,567.916L142.777,569.915M139.048,573.246L136.811,575.245M133.156,578.655L130.999,580.74M127.404,584.215L125.847,585.72" style="fill:none;fill-rule:nonzero;stroke:black;stroke-width:1px;"/>
            </g>
        </g>
        <g transform="matrix(1.333333,0,0,1.333333,0,0)">
            <g transform="matrix(1,0,0,1,0,-38.238646)">
                <path d="M126.085,802.75C132.083,808.784 138.482,814.698 145.224,820.494" style="fill:rgb(235,235,235);"/>
            </g>
        </g>
        <g transform="matrix(1.333333,0,0,1.333333,0,0)">
            <g transform="matrix(1,0,0,1,0,-38.238646)">
                <path d="M126.085,802.75L128.245,804.833M131.843,808.304L134.002,810.387M137.683,813.769L139.922,815.766M143.654,819.094L145.224,820.494" style="fill:none;fill-rule:nonzero;stroke:black;stroke-width:1px;"/>
            </g>
        </g>
        <g transform="matrix(1.333333,0,0,1.333333,0,0)">
            <g transform="matrix(1,0,0,1,0,-38.238646)">
                <path d="M126,694.25L67.199,589.248" style="fill:none;fill-rule:nonzero;stroke:rgb(255,0,0);stroke-width:1px;"/>
            </g>
        </g>
        <g transform="matrix(1.333333,0,0,1.333333,0,0)">
            <g transform="matrix(1,0,0,1,0,-38.238646)">
                <path d="M65.081,593.412C65.068,593.413 65.061,593.414 65.061,593.414L62.948,581.779C62.948,581.779 70.031,587.847 71.831,589.537C70.483,589.146 68.987,589.27 67.678,590.003C66.334,590.756 65.434,592.014 65.081,593.412" style="fill:rgb(255,0,0);"/>
            </g>
        </g>
        <g transform="matrix(1.333333,0,0,1.333333,0,0)">
            <g transform="matrix(1,0,0,1,0,-38.238646)">
                <path d="M90,630L95,630M98,630L103,630M106,630L111,630M114,630L119,630M122,630L126,630" style="fill:none;fill-rule:nonzero;stroke:rgb(0,0,227);stroke-width:1px;"/>
            </g>
        </g>
        <g transform="matrix(1.333333,0,0,1.333333,0,0)">
            <g transform="matrix(1,0,0,1,0,-38.238646)">
                <path d="M90,630L90,635M90,638L90,643M90,646L90,651M90,654L90,659M90,662L90,667M90,670L90,675M90,678L90,683M90,686L90,691M90,694L90,694.25" style="fill:none;fill-rule:nonzero;stroke:rgb(0,0,227);stroke-width:1px;"/>
            </g>
        </g>
        <g transform="matrix(1.333333,0,0,1.333333,0,0)">
            <g transform="matrix(1,0,0,1,0,-38.238646)">
                <path d="M108,694.138C108.042,687.471 111.388,681.802 117.205,678.545" style="fill:none;fill-rule:nonzero;stroke:rgb(0,199,0);stroke-width:1px;"/>
            </g>
        </g>
        <g transform="matrix(1.333333,0,0,1.333333,0,0)">
            <g transform="matrix(1,0,0,1,103.5,796.888)">
                <g transform="matrix(1,0,0,1,18,-29.238646)">
                    <text x="-15.83px" y="0px" style="font-family:'TimesNewRomanPSMT', 'Times New Roman', serif;font-size:10px;">-0.5</text>
                </g>
            </g>
        </g>
        <g transform="matrix(1.333333,0,0,1.333333,0,0)">
            <g transform="matrix(1,0,0,1,126,694.138)">
                <g transform="matrix(1,0,0,1,9,-29.238646)">
                    <text x="-5px" y="0px" style="font-family:'TimesNewRomanPSMT', 'Times New Roman', serif;font-size:10px;">0</text>
                </g>
            </g>
        </g>
        <g transform="matrix(1.333333,0,0,1.333333,0,0)">
            <g transform="matrix(1,0,0,1,45,694.138)">
                <g transform="matrix(1,0,0,1,0,-28.238646)">
                    <text x="0px" y="0px" style="font-family:'MS-Mincho', 'MS Mincho', monospace;font-size:10px;">-</text>
                    <text x="5px" y="0px" style="font-family:'TimesNewRomanPSMT', 'Times New Roman', serif;font-size:10px;">0.25</text>
                </g>
            </g>
        </g>
        <g transform="matrix(1.333333,0,0,1.333333,0,0)">
            <g transform="matrix(1,0,0,1,117,563.638)">
                <g transform="matrix(1,0,0,1,0,-27.438646)">
                    <text x="0px" y="0px" style="font-family:'TimesNewRomanPSMT', 'Times New Roman', serif;font-size:12px;">r</text>
                </g>
            </g>
        </g>
        <g transform="matrix(1.333333,0,0,1.333333,0,0)">
            <g transform="matrix(1,0,0,1,162,689.638)">
                <g transform="matrix(1,0,0,1,0,-27.438646)">
                    <text x="0px" y="0px" style="font-family:'TimesNewRomanPSMT', 'Times New Roman', serif;font-size:12px;">z</text>
                </g>
            </g>
        </g>
        <g transform="matrix(1.333333,0,0,1.333333,0,0)">
            <g transform="matrix(1,0,0,1,103.5,580.638)">
                <g transform="matrix(1,0,0,1,18,-29.238646)">
                    <text x="-12.5px" y="0px" style="font-family:'TimesNewRomanPSMT', 'Times New Roman', serif;font-size:10px;">0.5</text>
                </g>
            </g>
        </g>
        <g transform="matrix(1.333333,0,0,1.333333,0,0)">
            <g transform="matrix(1,0,0,1,87.25,690.375)">
                <g transform="matrix(1,0,0,1,0,-27.438646)">
                    <text x="0px" y="0px" style="font-family:'TimesNewRomanPSMT', 'Times New Roman', serif;font-size:12px;">z</text>
                </g>
            </g>
        </g>
        <g transform="matrix(1.333333,0,0,1.333333,0,0)">
            <g transform="matrix(1,0,0,1,127.5,622.25)">
                <g transform="matrix(1,0,0,1,0,-27.438646)">
                    <text x="0px" y="0px" style="font-family:'TimesNewRomanPSMT', 'Times New Roman', serif;font-size:12px;">r</text>
                </g>
            </g>
        </g>
        <g transform="matrix(1.333333,0,0,1.333333,0,0)">
            <g transform="matrix(1,0,0,1,49.5,568.25)">
                <g transform="matrix(1,0,0,1,0,-29.238646)">
                    <text x="0px" y="0px" style="font-family:'TimesNewRomanPSMT', 'Times New Roman', serif;font-size:10px;">(r</text>
                    <text x="6.66px" y="0px" style="font-family:'TimesNewRomanPSMT', 'Times New Roman', serif;font-size:7px;">x</text>
                    <text x="10.16px" y="0px" style="font-family:'TimesNewRomanPSMT', 'Times New Roman', serif;font-size:10px;">, r</text>
                    <text x="18.49px" y="0px" style="font-family:'TimesNewRomanPSMT', 'Times New Roman', serif;font-size:7px;">y</text>
                    <text x="21.99px" y="0px" style="font-family:'TimesNewRomanPSMT', 'Times New Roman', serif;font-size:10px;">, r</text>
                    <text x="30.32px" y="0px" style="font-family:'TimesNewRomanPSMT', 'Times New Roman', serif;font-size:7px;">z</text>
                    <text x="33.427px" y="0px" style="font-family:'TimesNewRomanPSMT', 'Times New Roman', serif;font-size:10px;">)</text>
                </g>
            </g>
        </g>
        <g transform="matrix(1.333333,0,0,1.333333,0,0)">
            <g transform="matrix(1,0,0,1,103.348,676.209)">
                <g transform="matrix(1,0,0,1,0,-28.238646)">
                    <text x="0px" y="0px" style="font-family:'Gabriola', fantasy;font-size:10px;">q</text>
                </g>
            </g>
        </g>
    </g>
</svg>
